<svg xmlns="http://www.w3.org/2000/svg" viewBox="0 0 1024 1024">
  <defs>
    <linearGradient id="bg" x1="170" y1="118" x2="854" y2="906" gradientUnits="userSpaceOnUse">
      <stop offset="0" stop-color="#2563eb"/>
      <stop offset="0.58" stop-color="#0f766e"/>
      <stop offset="1" stop-color="#111827"/>
    </linearGradient>
    <linearGradient id="paper" x1="323" y1="227" x2="698" y2="740" gradientUnits="userSpaceOnUse">
      <stop offset="0" stop-color="#ffffff"/>
      <stop offset="1" stop-color="#dbeafe"/>
    </linearGradient>
  </defs>
  <rect x="88" y="88" width="848" height="848" rx="204" fill="url(#bg)"/>
  <path d="M265 312c0-42 34-76 76-76h342c42 0 76 34 76 76v388c0 42-34 76-76 76H341c-42 0-76-34-76-76V312z" fill="#0f172a" opacity=".22"/>
  <path d="M292 284c0-42 34-76 76-76h288c18 0 36 7 49 20l72 72c14 14 21 32 21 51v321c0 42-34 76-76 76H368c-42 0-76-34-76-76V284z" fill="url(#paper)"/>
  <path d="M642 216v110c0 24 20 44 44 44h107" fill="#bfdbfe"/>
  <path d="M368 455h292M368 535h292M368 615h197" fill="none" stroke="#2563eb" stroke-width="34" stroke-linecap="round"/>
  <path d="M258 724h508c31 0 56 25 56 56v37H202v-37c0-31 25-56 56-56z" fill="#f8fafc"/>
  <path d="M231 810h562" stroke="#0f766e" stroke-width="36" stroke-linecap="round"/>
  <circle cx="724" cy="689" r="82" fill="#f59e0b"/>
  <path d="M780 745l80 80" stroke="#f59e0b" stroke-width="44" stroke-linecap="round"/>
  <circle cx="724" cy="689" r="45" fill="#fff7ed"/>
</svg>
